<?xml version="1.0" standalone="no"?>
<!DOCTYPE svg PUBLIC "-//W3C//DTD SVG 20010904//EN"
 "http://www.w3.org/TR/2001/REC-SVG-20010904/DTD/svg10.dtd">
<svg version="1.0" xmlns="http://www.w3.org/2000/svg"
 width="1024.000000pt" height="1024.000000pt" viewBox="0 0 1024.000000 1024.000000"
 preserveAspectRatio="xMidYMid meet">

<g transform="translate(0.000000,1024.000000) scale(0.100000,-0.100000)"
fill="#000000" stroke="none">
<path d="M7110 7848 c-210 -29 -398 -225 -432 -450 -45 -296 175 -568 472
-585 168 -10 290 35 400 146 101 102 150 223 150 369 0 263 -191 489 -441 522
-41 5 -76 9 -79 8 -3 0 -34 -5 -70 -10z"/>
<path d="M6010 7304 c-96 -36 -159 -63 -360 -157 -568 -264 -1036 -478 -1440
-662 -239 -108 -520 -237 -625 -285 -268 -124 -779 -359 -1050 -483 -126 -58
-286 -131 -355 -162 -69 -32 -170 -77 -224 -101 -125 -56 -160 -82 -181 -139
-27 -69 -16 -117 84 -360 97 -236 115 -264 188 -284 26 -8 974 -11 3077 -11
l3039 0 -7 86 c-7 95 -24 145 -64 187 -52 55 -87 65 -342 96 -158 20 -250 35
-264 45 -59 42 -57 38 -209 366 -142 308 -541 1138 -709 1475 -108 218 -126
245 -196 300 -79 63 -147 87 -257 91 -49 2 -97 1 -105 -2z m36 -771 c162 -249
1114 -1767 1114 -1777 0 -3 -1027 -5 -2282 -4 -1911 3 -2287 5 -2310 17 -26
13 -204 209 -214 235 -3 9 10 19 38 29 24 8 131 51 238 95 107 44 364 148 570
232 206 84 404 165 440 180 36 16 175 73 310 128 135 55 405 166 600 247 281
117 365 147 401 147 33 0 73 -12 140 -42 76 -34 109 -43 169 -47 71 -5 84 -2
241 52 92 31 252 89 357 129 l191 72 -52 85 c-51 82 -52 86 -52 159 0 67 22
150 39 150 3 0 30 -39 62 -87z"/>
<path d="M4178 4151 c-73 -24 -116 -51 -165 -104 -51 -56 -78 -101 -96 -164
-71 -239 18 -475 213 -567 61 -29 72 -31 186 -31 119 0 121 0 196 38 116 57
177 136 213 272 30 115 12 267 -42 367 -38 70 -130 151 -200 179 -81 31 -226
36 -305 10z m183 -162 c224 -48 230 -469 8 -529 -52 -14 -101 -6 -156 26 -51
29 -78 71 -99 155 -39 151 28 314 143 349 39 12 45 11 104 -1z"/>
<path d="M6841 4160 c-71 -15 -132 -50 -192 -109 -64 -65 -94 -121 -114 -217
-48 -227 39 -430 223 -517 64 -30 73 -32 187 -32 109 0 125 2 177 27 31 14 77
45 102 68 46 42 102 138 89 151 -5 4 -44 20 -87 35 -76 27 -80 27 -90 9 -77
-133 -222 -163 -326 -69 -112 101 -103 360 15 449 93 71 227 46 286 -53 12
-20 24 -39 26 -41 1 -2 41 6 88 20 54 15 85 28 85 37 0 28 -64 133 -99 164
-63 56 -133 81 -235 84 -50 2 -111 -1 -135 -6z"/>
<path d="M2150 3723 l0 -433 95 0 95 0 0 149 0 148 128 6 c142 6 198 21 255
68 118 97 131 300 26 409 -69 71 -83 74 -357 80 l-242 5 0 -432z m421 244 c47
-31 61 -99 32 -148 -28 -49 -55 -59 -165 -59 l-98 0 0 115 0 115 99 0 c85 0
102 -3 132 -23z"/>
<path d="M3198 4152 l-168 -2 0 -430 0 -430 100 0 100 0 0 155 0 156 58 -3 57
-3 83 -152 84 -153 114 0 c63 0 114 2 114 5 0 3 -45 80 -100 170 -55 91 -100
167 -100 169 0 2 10 6 23 10 37 9 104 73 128 124 19 37 23 63 23 122 -1 100
-34 168 -102 211 -78 50 -130 56 -414 51z m247 -176 c42 -18 55 -42 55 -103 0
-87 -42 -113 -181 -113 l-89 0 0 115 0 115 90 0 c56 0 104 -5 125 -14z"/>
<path d="M5284 4151 c-2 -2 -4 -142 -4 -310 0 -282 -2 -308 -19 -337 -49 -81
-153 -63 -186 31 -8 22 -17 39 -22 38 -53 -10 -183 -57 -183 -66 0 -7 15 -41
33 -76 53 -105 135 -151 273 -151 134 0 228 50 276 148 23 46 23 54 26 384 l3
337 -96 3 c-53 2 -99 1 -101 -1z"/>
<path d="M7478 4072 l-3 -82 118 0 117 0 0 -350 0 -350 95 0 95 0 0 350 0 349
118 3 117 3 0 77 0 77 -327 3 -327 3 -3 -83z"/>
<path d="M5740 3720 l0 -430 295 0 295 0 0 85 0 85 -195 0 -195 0 0 105 0 105
175 0 175 0 0 80 0 80 -175 0 -175 0 0 80 0 80 193 0 192 0 -3 80 -4 80 -289
0 -289 0 0 -430z"/>
<path d="M3498 3005 c-107 -29 -189 -101 -241 -213 -58 -125 -47 -322 24 -434
84 -130 239 -196 404 -170 220 34 347 204 332 442 -15 240 -174 392 -407 389
-36 0 -86 -7 -112 -14z m198 -174 c133 -60 167 -305 59 -417 -70 -73 -171 -80
-253 -18 -96 74 -111 274 -29 386 46 63 145 84 223 49z"/>
<path d="M2150 2605 l0 -405 90 0 90 0 2 262 3 262 100 -262 100 -262 57 0 57
0 91 233 c50 127 95 241 100 252 5 13 9 -74 9 -232 l1 -253 95 0 95 0 0 405 0
405 -124 0 -125 0 -89 -227 c-49 -126 -92 -235 -95 -243 -6 -18 6 -47 -101
240 l-85 225 -135 3 -136 3 0 -406z"/>
<path d="M4085 2988 c8 -25 247 -690 269 -748 l14 -35 121 -3 120 -3 16 37 c8
21 74 198 147 393 72 196 133 362 136 369 3 10 -19 12 -104 10 l-109 -3 -100
-297 -100 -298 -100 298 -100 297 -108 3 -109 4 7 -24z"/>
<path d="M5040 2605 l0 -405 295 0 295 0 0 80 0 80 -200 0 -200 0 0 85 0 85
170 0 170 0 0 75 0 75 -170 0 -170 0 0 80 0 80 200 0 200 0 0 85 0 85 -295 0
-295 0 0 -405z"/>
<path d="M5817 3003 c-4 -3 -7 -186 -7 -405 l0 -398 95 0 95 0 2 231 3 231
164 -231 164 -231 99 0 98 0 -2 403 -3 402 -90 0 -90 0 -3 -249 -2 -248 -177
251 -177 251 -81 0 c-45 0 -85 -3 -88 -7z"/>
<path d="M6757 3004 c-4 -4 -7 -187 -7 -406 l0 -398 295 0 295 0 0 80 0 80
-200 0 -200 0 0 85 0 85 175 0 175 0 0 75 0 75 -175 0 -175 0 0 80 0 80 200 0
200 0 0 84 0 84 -288 2 c-158 0 -291 -2 -295 -6z"/>
<path d="M7480 2926 l0 -86 115 0 115 0 0 -320 0 -320 95 0 95 0 0 320 0 320
120 0 121 0 -3 83 -3 82 -327 3 -328 3 0 -85z"/>
</g>
</svg>
